<?xml version="1.0" encoding="utf-8"?><!-- Uploaded to: SVG Repo, www.svgrepo.com, Generator: SVG Repo Mixer Tools -->
<svg version="1.1" id="Uploaded to svgrepo.com" xmlns="http://www.w3.org/2000/svg" xmlns:xlink="http://www.w3.org/1999/xlink" 
	 width="800px" height="800px" viewBox="0 0 32 32" xml:space="preserve">
<style type="text/css">
	.feather_een{fill:#111918;}
	.st0{fill:#0B1719;}
</style>
<path class="feather_een" d="M27,21V7c0-0.552-0.448-1-1-1H6C5.448,6,5,6.448,5,7v14c0,0.552,0.448,1,1,1h20
	C26.552,22,27,21.552,27,21z M6,7h20v14H6V7z M29,23V7c0-1.657-1.343-3-3-3H6C4.343,4,3,5.343,3,7v16c-1.105,0-2,0.895-2,2
	c0,1.105,0.895,2,2,2h26c1.105,0,2-0.895,2-2C31,23.895,30.105,23,29,23z M4,7c0-1.103,0.897-2,2-2h20c1.103,0,2,0.897,2,2v16H4V7z
	 M29,26H3c-0.551,0-1-0.449-1-1s0.449-1,1-1h10c0,0.552,0.448,1,1,1h4c0.552,0,1-0.448,1-1h10c0.551,0,1,0.449,1,1S29.551,26,29,26z
	"/>
</svg>