<?xml version="1.0" encoding="UTF-8"?>
<svg xmlns="http://www.w3.org/2000/svg" version="1.1" width="100" height="100" viewBox="0 0 102 102">
   <g>
      <rect x="1" y="1" width="99" height="100" rx="10" ry="10" stroke="black" stroke-width="2" fill="#ffce51"/>
      <path d="m80.645 7.6719v-1.2656c0-0.77734-0.62891-1.4062-1.4062-1.4062h-11.457c-0.77734 0-1.4062 0.62891-1.4062 1.4062v1.2266h-41.406c-0.77734 0-1.4062 0.62891-1.4062 1.4062 0 0.77734 0.62891 1.4062 1.4062 1.4062h41.406v3.6562c0 0.77734 0.62891 1.4062 1.4062 1.4062s1.4062-0.62891 1.4062-1.4062v-6.2852h8.6445v17.543l-3.418-2.8672c-0.52344-0.4375-1.2852-0.4375-1.8086 0l-3.418 2.8672v-4.8672c0-0.77734-0.62891-1.4062-1.4062-1.4062s-1.4062 0.62891-1.4062 1.4062v7.8828c0 0.54688 0.31641 1.043 0.8125 1.2734 0.49609 0.23047 1.0781 0.15625 1.5-0.19922l4.8242-4.0508 4.8242 4.0508c0.25781 0.21875 0.57812 0.32812 0.90234 0.32812 0.20312 0 0.40625-0.042969 0.59375-0.13281 0.49609-0.23047 0.8125-0.72656 0.8125-1.2734v-17.871c3.0703 0.41016 5.4492 3.0469 5.4492 6.2305v56.336c0 0.81641-0.66406 1.4766-1.4766 1.4766h-64.426c-2.5312 0-4.6992 0.74219-6.2852 2.0312v-59.844c0-3.4648 2.8203-6.2852 6.2852-6.2852 0.77734 0 1.4062-0.62891 1.4062-1.4062 0-0.77734-0.62891-1.4062-1.4062-1.4062-5.0156 0-9.0977 4.082-9.0977 9.0977v67.129c0 6.1445 5 11.141 11.141 11.141h62.941c2.0586 0 3.7305-1.6758 3.7305-3.7305v-74.539c0-4.7344-3.6367-8.6328-8.2617-9.0586zm4.5312 84.516h-62.941c-4.5938 0-8.3281-3.7383-8.3281-8.3281v-1.2109c0-1.4648 0.50781-2.6055 1.3203-3.4453-0.41406 0.95703-0.64453 2.0156-0.64453 3.125 0 4.2891 3.418 7.7812 7.6211 7.7812h19.977c0.77734 0 1.4062-0.62891 1.4062-1.4062s-0.62891-1.4062-1.4062-1.4062h-19.977c-2.6523 0-4.8086-2.2266-4.8086-4.9688 0-2.7383 2.1562-4.9688 4.8086-4.9688h62.414c0.10547 0 0.21094-0.003906 0.31641-0.011719-0.40234 0.95703-0.61719 1.9961-0.61719 3.0703v3.8242c0 1.0664 0.21094 2.1016 0.60938 3.0547h-34.926c-0.77734 0-1.4062 0.62891-1.4062 1.4062s0.62891 1.4062 1.4062 1.4062h36.094v1.1641c0 0.50781-0.41406 0.91797-0.91797 0.91797z" />
      <path d="m21.602 25.539c-0.77734 0-1.4062 0.62891-1.4062 1.4062v40.406c0 0.77734 0.62891 1.4062 1.4062 1.4062 0.77734 0 1.4062-0.62891 1.4062-1.4062v-40.406c0-0.77734-0.62891-1.4062-1.4062-1.4062z" />
      <path d="m20.195 17.785v2.7031c0 0.77734 0.62891 1.4062 1.4062 1.4062 0.77734 0 1.4062-0.62891 1.4062-1.4062v-2.7031c0-0.77734-0.62891-1.4062-1.4062-1.4062-0.77734 0-1.4062 0.62891-1.4062 1.4062z" />
      <!-- calc -->
      <path d="m78.84 70.535c1.9375 0 3.5156-1.5781 3.5156-3.5156v-29.965c0-1.9375-1.5781-3.5156-3.5156-3.5156l-49.043 0.003907c-1.9375 0-3.5156 1.5781-3.5156 3.5156v29.965c0 1.9375 1.5781 3.5156 3.5156 3.5156h49.043zm-49.746-3.5156v-29.965c0-0.38672 0.31641-0.70313 0.70312-0.70313h49.043c0.38672 0 0.70312 0.31641 0.70312 0.70313v29.965c0 0.38672-0.31641 0.70312-0.70312 0.70312h-49.043c-0.38672 0-0.70312-0.31641-0.70312-0.70312z" />
      <path d="m59.992 45.918h10.695c0.77734 0 1.4062-0.62891 1.4062-1.4062 0-0.77734-0.62891-1.4062-1.4062-1.4062h-10.695c-0.77734 0-1.4062 0.62891-1.4062 1.4062 0 0.77734 0.62891 1.4062 1.4062 1.4062z" />
      <path d="m37.945 45.918h3.1914v3.1914c0 0.77734 0.62891 1.4062 1.4062 1.4062 0.77734 0 1.4062-0.62891 1.4062-1.4062v-3.1914h3.1914c0.77734 0 1.4062-0.62891 1.4062-1.4062 0-0.77734-0.62891-1.4062-1.4062-1.4062h-3.1914v-3.1914c0-0.77734-0.62891-1.4062-1.4062-1.4062-0.77734 0-1.4062 0.62891-1.4062 1.4062v3.1914h-3.1914c-0.77734 0-1.4062 0.62891-1.4062 1.4062 0 0.77734 0.62891 1.4062 1.4062 1.4062z" />
      <path d="m59.992 61.074h10.695c0.77734 0 1.4062-0.62891 1.4062-1.4062 0-0.77734-0.62891-1.4062-1.4062-1.4062h-10.695c-0.77734 0-1.4062 0.62891-1.4062 1.4062 0 0.77734 0.62891 1.4062 1.4062 1.4062z" />
      <path d="m63.934 55.168v0.30469c0 0.77734 0.62891 1.4062 1.4062 1.4062s1.4062-0.62891 1.4062-1.4062v-0.30469c0-0.77734-0.62891-1.4062-1.4062-1.4062s-1.4062 0.62891-1.4062 1.4062z" />
      <path d="m65.34 62.457c-0.77734 0-1.4062 0.62891-1.4062 1.4062v0.30469c0 0.77734 0.62891 1.4062 1.4062 1.4062s1.4062-0.62891 1.4062-1.4062v-0.30469c0-0.77734-0.62891-1.4062-1.4062-1.4062z" />
      <path d="m47.293 54.918c-0.55078-0.55078-1.4414-0.55078-1.9883 0l-2.7617 2.7617-2.7617-2.7617c-0.55078-0.55078-1.4414-0.55078-1.9883 0-0.55078 0.55078-0.55078 1.4414 0 1.9883l2.7617 2.7617-2.7617 2.7617c-0.55078 0.55078-0.55078 1.4414 0 1.9883 0.27344 0.27344 0.63281 0.41016 0.99609 0.41016 0.35938 0 0.71875-0.13672 0.99609-0.41016l2.7617-2.7617 2.7617 2.7617c0.27344 0.27344 0.63281 0.41016 0.99609 0.41016 0.35937 0 0.71875-0.13672 0.99609-0.41016 0.55078-0.55078 0.55078-1.4414 0-1.9883l-2.7617-2.7617 2.7617-2.7617c0.55078-0.55078 0.55078-1.4414 0-1.9883z" />
   </g>
</svg>